<?xml version="1.0" encoding="UTF-8"?>
<!-- Created with Inkscape (http://www.inkscape.org/) -->
<svg width="24.761mm" height="17.352mm" version="1.1" viewBox="0 0 24.761 17.352" xmlns="http://www.w3.org/2000/svg" xmlns:cc="http://creativecommons.org/ns#" xmlns:dc="http://purl.org/dc/elements/1.1/" xmlns:rdf="http://www.w3.org/1999/02/22-rdf-syntax-ns#">
 <metadata>
  <rdf:RDF>
   <cc:Work rdf:about="">
    <dc:format>image/svg+xml</dc:format>
    <dc:type rdf:resource="http://purl.org/dc/dcmitype/StillImage"/>
    <dc:title/>
   </cc:Work>
  </rdf:RDF>
 </metadata>
 <g transform="translate(34.88 -74.916)" fill="#fff">
  <g stroke-width=".26458" aria-label="RPG">
   <path d="m-32.562 75.953q-0.1905 0-0.41275 0.15875v3.4396q0.27517 0 0.61383-0.16933 0.33867-0.17992 0.33867-0.37042v-2.2754q0-0.78317-0.53975-0.78317zm-1.6828 6.0325v-5.4822q0-0.64558-0.43392-0.73025v-0.23283l1.0689-0.60325q0.21167 0.08467 0.42333 0.30692 0.21167 0.22225 0.21167 0.40217 1.1642-0.70908 1.3335-0.70908 0.16933 0 0.52917 0.43392 0.37042 0.43392 0.37042 0.78317v2.9739q0 0.08467-1.1536 0.53975 0.48683 1.6404 1.143 2.2119 0.29633 0.24342 0.60325 0.24342v0.3175q-0.98425 0.62442-1.2488 0.62442-0.34925 0-0.889-1.3123-0.52917-1.3123-0.5715-1.7357l-0.11642 0.03175v1.3864q0 0.39158 0.08467 0.56092 0.08467 0.16933 0.34925 0.16933v0.32808l-2.1696 0.91017-0.16933-0.33867q0.23283 0 0.4445-0.27517 0.1905-0.26458 0.1905-0.80433z"/>
   <path d="m-28.406 75.647q1.1642-0.70908 1.3335-0.70908 0.16933 0 0.52917 0.43392 0.37042 0.43392 0.37042 0.78317v3.2914q0 0.07408-0.84667 0.41275-0.83608 0.33867-1.3864 0.508v1.0689q0 0.39158 0.08467 0.56092 0.08467 0.16933 0.34925 0.16933v0.32808l-2.1696 0.91017-0.16933-0.33867q0.23283 0 0.4445-0.27517 0.1905-0.26458 0.1905-0.80433v-5.4822q0-0.64558-0.43392-0.73025v-0.23283l1.0689-0.60325q0.21167 0.08467 0.42333 0.30692 0.21167 0.22225 0.21167 0.40217zm0.41275 0.30692q-0.1905 0-0.41275 0.15875v3.7571q0.27517 0 0.61383-0.16933 0.33867-0.17992 0.33867-0.37042v-2.5929q0-0.78317-0.53975-0.78317z"/>
   <path d="m-23.402 82.092q0.20108 0 0.41275-0.16933v-1.3652q0-0.64558-0.43392-0.73025v-0.23283l1.0689-0.60325q0.22225 0.09525 0.43392 0.3175 0.21167 0.21167 0.21167 0.40217v2.3707q0 0.08467-1.1642 0.53975-1.1536 0.4445-1.4182 0.4445-0.254 0-0.59267-0.45508-0.32808-0.45508-0.32808-1.0901v-5.6303q0-0.07408 1.2065-0.51858 1.2171-0.45508 1.397-0.45508 0.0635 0 0.14817 0.30692t0.1905 0.74083q0.11642 0.43392 0.23283 0.64558 0.127 0.20108 0.46567 0.20108v0.21167q-0.23283 0.10583-0.79375 0.381-0.55033 0.26458-0.59267 0.26458-0.15875 0-0.40217-0.85725-0.24342-0.86783-0.39158-0.86783-0.10583 0-0.1905 0.10583v5.2599q0 0.78317 0.53975 0.78317z"/>
  </g>
  <g stroke-width=".26458" aria-label="Data">
   <path d="m-21.659 85.336v5.9478q0 0.08467-1.1642 0.53975-1.1536 0.4445-1.4182 0.4445-0.254 0-0.59267-0.45508-0.32808-0.45508-0.32808-1.0901v-5.08q0-0.5715-0.43392-0.66675v-0.23283l1.0689-0.60325q0.23283 0.09525 0.43392 0.3175 0.20108 0.21167 0.20108 0.40217l1.3123-0.74083q0.1905 0 0.55033 0.43392 0.37042 0.43392 0.37042 0.78317zm-1.6933 5.9584q0.20108 0 0.41275-0.16933v-4.9953q0-0.75142-0.53975-0.75142-0.21167 0-0.41275 0.15875v4.9742q0 0.78317 0.53975 0.78317z"/>
   <path d="m-17.314 87.632v2.9951q0 0.39158 0.127 0.55033 0.127 0.14817 0.39158 0.21167v0.23283l-1.1536 0.64558q-0.23283-0.09525-0.43392-0.30692-0.20108-0.22225-0.20108-0.40217l-1.3229 0.70908q-0.03175-0.02117-0.09525-0.05292-0.0635-0.04233-0.22225-0.15875-0.14817-0.127-0.26458-0.26458-0.3175-0.34925-0.3175-0.79375v-1.7357q0-0.16933 0.55033-0.43392 0.55033-0.26458 1.1007-0.43392l0.56092-0.17992q0-0.60325-0.3175-0.83608-0.3175-0.24342-1.2277-0.24342v-0.3175q1.6404-0.58208 1.8415-0.58208 0.34925 0 0.66675 0.45508t0.3175 0.94192zm-2.2225 2.9845q0 0.27517 0.15875 0.45508 0.16933 0.16933 0.37042 0.16933t0.42333-0.15875v-2.3918q-0.26458 0.09525-0.40217 0.15875-0.127 0.0635-0.27517 0.20108-0.27517 0.254-0.27517 0.87842z"/>
   <path d="m-14.984 85.135v1.2594h0.53975l-0.10583 0.51858h-0.43392v3.7888q0 0.64558 0.43392 0.73025v0.23283l-1.0689 0.60325q-0.23283-0.09525-0.43392-0.30692-0.20108-0.22225-0.20108-0.41275v-4.6249h-0.43392l0.10583-0.4445q0.3175 0 0.762-0.42333 0.45508-0.43392 0.53975-0.92075z"/>
   <path d="m-10.637 87.632v2.9951q0 0.39158 0.127 0.55033 0.127 0.14817 0.39158 0.21167v0.23283l-1.1536 0.64558q-0.23283-0.09525-0.43392-0.30692-0.20108-0.22225-0.20108-0.40217l-1.3229 0.70908q-0.03175-0.02117-0.09525-0.05292-0.0635-0.04233-0.22225-0.15875-0.14817-0.127-0.26458-0.26458-0.3175-0.34925-0.3175-0.79375v-1.7357q0-0.16933 0.55033-0.43392 0.55033-0.26458 1.1007-0.43392l0.56092-0.17992q0-0.60325-0.3175-0.83608-0.3175-0.24342-1.2277-0.24342v-0.3175q1.6404-0.58208 1.8415-0.58208 0.34925 0 0.66675 0.45508t0.3175 0.94192zm-2.2225 2.9845q0 0.27517 0.15875 0.45508 0.16933 0.16933 0.37042 0.16933 0.20108 0 0.42333-0.15875v-2.3918q-0.26458 0.09525-0.40217 0.15875-0.127 0.0635-0.27517 0.20108-0.27517 0.254-0.27517 0.87842z"/>
  </g>
  <path d="m-31.926 84.461c0.19306-0.46613 4.6066-0.39357 5-1.58e-4s0.61198 4.8361 0 5.0001-5.1931-4.5338-5-4.9999z"/>
  <path d="m-15.402 83.319c-0.19306 0.46613-4.6066 0.39357-5 1.58e-4s-0.61198-4.8361 0-5.0001 5.1931 4.5338 5 4.9999z"/>
 </g>
</svg>
